<?xml version="1.0" encoding="UTF-8"?>
<svg id="_ëîé_1" data-name="‘ëîé_1" xmlns="http://www.w3.org/2000/svg" width="2144.44" height="1445.69" viewBox="0 0 2144.44 1445.69">
  <defs>
    <style>
      .cls-1 {
        fill: #dbb307;
      }

      .cls-2, .cls-3 {
        fill: #ea0a35;
      }

      .cls-4 {
        fill: #fcf0f0;
      }

      .cls-5 {
        letter-spacing: -.02em;
      }

      .cls-6 {
        letter-spacing: -.08em;
      }

      .cls-7 {
        fill: #869edb;
      }

      .cls-3 {
        font-family: Rockwell-Bold, Rockwell;
        font-size: 91.99px;
        font-weight: 700;
      }
    </style>
  </defs>
  <g>
    <g>
      <g>
        <g>
          <path class="cls-4" d="m1269.9,167.27c-.36,87.92-89.12,158.81-198.22,158.37-109.12-.45-197.28-72.06-196.92-159.98.25-62.24,44.82-115.97,109.54-141.85,6.25-2.51,12.68-4.75,19.28-6.71,2.39-.72,4.8-1.4,7.25-2.03,17.46-4.58,36.01-7.26,55.25-7.69,2.28-.06,4.58-.09,6.9-.08,109.1.45,197.28,72.06,196.92,159.98Z"/>
          <path class="cls-2" d="m1072.7,332.92c-.35,0-.7,0-1.05,0-112.95-.46-204.54-75.51-204.17-167.29.26-63.6,43.99-120.53,114.12-148.58,6.4-2.57,13.1-4.91,19.91-6.93,2.66-.8,5.12-1.49,7.52-2.11,18.36-4.82,37.52-7.49,56.9-7.92,2.32-.06,4.7-.09,7.09-.08,54.43.22,105.59,17.56,144.07,48.82,38.94,31.63,60.28,73.71,60.1,118.47h0c-.38,91.5-92.01,165.62-204.48,165.62Zm-.65-318.35c-1.93,0-3.86.03-5.76.08-18.29.41-36.31,2.92-53.61,7.46-2.23.58-4.51,1.21-7,1.96-6.39,1.9-12.66,4.08-18.66,6.49-64.52,25.8-104.74,77.58-104.97,135.12-.34,83.75,84.74,152.24,189.67,152.67.33,0,.66,0,.99,0,104.48,0,189.58-67.62,189.92-151.12.17-40.27-19.27-78.31-54.72-107.11-35.91-29.17-83.83-45.35-134.95-45.56-.3,0-.6,0-.9,0Z"/>
        </g>
        <path class="cls-2" d="m1042.16,147.05l-87.74-.36s1.99-84.72,56.41-131.63c17.46-4.58,36.01-7.26,55.25-7.69-22.28,26.62-49.38,75.67-23.93,139.68Z"/>
        <path class="cls-2" d="m941.88,152.88l-28.02-6.36s-7.22-67.18,70.45-122.72c6.25-2.51,12.68-4.75,19.28-6.71-29.65,25.23-72.93,73.83-61.7,135.79Z"/>
        <g>
          <path class="cls-4" d="m1448.91,267.05c-.14,33.21-168.87,59.43-376.87,58.58-208.01-.85-376.52-28.45-376.39-61.66.23-56.68,169.22-144.44,377.22-143.59,208,.85,376.26,89.99,376.03,146.67Z"/>
          <path class="cls-2" d="m1072.02,331.53c-100.91-.41-195.79-7.08-267.18-18.77-77.52-12.7-115.16-28.66-115.08-48.81.06-15.73,11.09-33.35,31.87-50.94,20-16.92,48.5-33.46,82.42-47.83,78.09-33.08,173.57-51.08,268.85-50.69,95.27.39,190.6,19.17,268.42,52.88,33.8,14.64,62.16,31.42,82.02,48.5,20.64,17.76,31.52,35.47,31.46,51.2-.08,20.14-37.85,35.8-115.47,47.86-71.48,11.11-166.41,17-267.31,16.59Zm.84-205.25c-54.28-.22-160.78,5.95-264.21,49.75-32.84,13.91-60.3,29.81-79.4,45.97-17.81,15.08-27.65,29.99-27.7,41.99-.03,7.38,22.09,23.51,105.2,37.12,70.79,11.6,165.01,18.21,265.32,18.62,100.3.41,194.57-5.43,265.45-16.45,83.21-12.93,105.47-28.88,105.5-36.26.05-12-9.67-27-27.36-42.22-18.97-16.32-46.29-32.44-79.02-46.62-44.24-19.17-137.33-51.4-263.78-51.91Z"/>
        </g>
        <path class="cls-2" d="m1448.91,267.05c-.14,33.21-168.87,59.43-376.87,58.58-208.01-.85-376.52-28.45-376.39-61.66.14-33.2,168.87-59.42,376.88-58.57,208,.85,376.51,28.45,376.37,61.65Z"/>
        <path class="cls-4" d="m1071.71,318.93c-35.23-.14-68.39-2.33-93.37-6.14-33.11-5.06-41.36-11.32-42.95-17.13l-21.43-24.17c-2.7-2.53-3.27-5.17-3.27-6.96.04-11,20.32-15.71,50.74-19.39,29.59-3.58,68.87-5.46,110.6-5.29,41.73.17,80.99,2.37,110.55,6.19,42.02,5.44,50.61,11.85,50.58,19.81,0,1.79-.6,4.42-3.33,6.93l-21.63,23.99c-1.63,5.8-9.93,11.99-43.08,16.78-25.01,3.61-58.18,5.52-93.41,5.38Z"/>
        <path class="cls-4" d="m1227.62,266.16c.04-10.74-69.47-19.73-155.26-20.09-85.79-.35-155.37,8.07-155.42,18.81,0,.94.54,1.88,1.58,2.79h0l22.8,25.71,261.7,1.07,23-25.52c1.04-.9,1.6-1.83,1.6-2.78Z"/>
        <path class="cls-4" d="m773.08,307.65s-1.79-.29-5.15-.84c-3.35-.58-8.28-1.4-14.48-2.84-6.2-1.45-13.73-3.31-22.14-6.39-4.21-1.54-8.64-3.35-13.18-5.74-2.27-1.2-4.55-2.56-6.79-4.22-2.23-1.66-4.47-3.55-6.36-6.17-.93-1.31-1.81-2.8-2.32-4.59-.25-.89-.44-1.83-.48-2.81v-.18c-.02-.12-.03.02-.02-.32v-.26c.01-.2,0-.3.02-.58.05-.57.12-1.14.22-1.58.85-3.9,3.24-6.73,5.63-8.99,2.44-2.28,5.13-4.06,7.91-5.66,2.78-1.6,5.66-3,8.61-4.3,11.81-5.13,24.62-8.9,37.97-12.08,13.36-3.15,27.23-5.94,41.4-8.16,14.17-2.24,28.6-4.15,43.04-5.83,14.46-1.57,28.94-2.85,43.19-3.95,14.25-1.16,28.31-1.8,41.9-2.45,13.59-.66,26.75-.96,39.21-1.18,12.47-.26,24.26-.27,35.14-.18,10.88.03,20.85.25,29.69.5,8.83.21,16.53.55,22.87.82,6.34.25,11.32.6,14.71.78,3.39.2,5.2.31,5.2.31,0,0-28.93,1.55-72.32,3.87-10.83.64-22.56,1.33-34.97,2.06-12.39.84-25.46,1.72-38.98,2.63-13.51.93-27.45,2.2-41.61,3.35-14.16,1.21-28.52,2.64-42.84,4.28-14.34,1.53-28.64,3.3-42.65,5.39-14,2.12-27.76,4.29-40.9,7.09-13.1,2.85-25.75,5.87-36.98,10.21-5.56,2.17-10.87,4.72-14.85,7.91-1.95,1.59-3.43,3.41-3.88,5.08-.48,1.6-.05,3.45,1.18,5.35,1.17,1.88,2.91,3.61,4.76,5.16,1.86,1.54,3.86,2.93,5.87,4.22,4.05,2.55,8.18,4.62,12.14,6.43,7.94,3.57,15.17,6.16,21.16,8.15,6.01,1.95,10.77,3.42,14.04,4.34,3.27.92,5.02,1.4,5.02,1.4Z"/>
        <g>
          <g>
            <path class="cls-4" d="m896.56,258.76c-.02,4.31-12.68,7.74-28.27,7.68-15.6-.06-28.23-3.61-28.21-7.91.02-4.31,12.68-7.74,28.27-7.68,15.6.06,28.23,3.61,28.21,7.91Z"/>
            <path class="cls-7" d="m899.89,260.49c-.02,4.31-12.68,7.74-28.27,7.68-15.6-.06-28.23-3.61-28.21-7.91.02-4.31,12.68-7.74,28.27-7.68,15.6.06,28.23,3.61,28.21,7.91Z"/>
          </g>
          <g>
            <path class="cls-4" d="m893.68,262.2c-.01,3.48-10.85,6.26-24.19,6.2-13.35-.05-24.15-2.92-24.14-6.4.01-3.48,10.85-6.26,24.19-6.2,13.35.05,24.15,2.92,24.14,6.4Z"/>
            <path class="cls-7" d="m896.54,263.59c-.01,3.48-10.85,6.26-24.19,6.2-13.35-.05-24.15-2.92-24.14-6.4.01-3.48,10.85-6.26,24.19-6.2,13.35.05,24.15,2.92,24.14,6.4Z"/>
          </g>
          <path class="cls-4" d="m884.51,264.66c0,1-6.72,1.78-15.01,1.74s-15-.87-14.99-1.87c0-1,6.72-1.78,15.01-1.74,8.29.03,15,.87,14.99,1.87Z"/>
        </g>
        <g>
          <g>
            <path class="cls-4" d="m898.26,297.27c0,2.25-6.62,4.05-14.77,4.01-8.15-.03-14.75-1.88-14.74-4.13,0-2.25,6.62-4.05,14.77-4.01,8.15.03,14.75,1.88,14.74,4.13Z"/>
            <path class="cls-7" d="m900,298.18c0,2.25-6.62,4.05-14.77,4.01-8.15-.03-14.75-1.88-14.74-4.13,0-2.25,6.62-4.05,14.77-4.01,8.15.03,14.75,1.88,14.74,4.13Z"/>
          </g>
          <g>
            <path class="cls-4" d="m896.76,299.07c0,1.82-5.67,3.27-12.64,3.24-6.97-.03-12.62-1.53-12.61-3.34,0-1.82,5.67-3.27,12.64-3.24,6.97.03,12.62,1.53,12.61,3.34Z"/>
            <path class="cls-7" d="m898.25,299.8c0,1.82-5.67,3.27-12.64,3.24-6.97-.03-12.62-1.53-12.61-3.34,0-1.82,5.67-3.27,12.64-3.24,6.97.03,12.62,1.53,12.61,3.34Z"/>
          </g>
          <path class="cls-4" d="m891.97,300.35c0,.52-3.51.93-7.84.91-4.33-.02-7.84-.45-7.84-.98s3.51-.93,7.84-.91c4.33.02,7.84.45,7.84.98Z"/>
        </g>
        <g>
          <path class="cls-2" d="m995.57,142.59c-162.89,24.35-190.73,47.42-219.87,59.94-30.63,13.15-52.03,29.48-74.38,50.18,15.92-4.58,49.33-17.64,72.13-21.84,42.39-7.82,160.3-19.13,214.5-22.99,0,0-123.72,7.84-121.94-12.38,2.25-25.56,129.55-52.91,129.55-52.91Z"/>
          <path class="cls-2" d="m1442.26,254.95c-14.45-4.16-43.42-17.53-65.7-22.7-2.27-.52-4.46-.99-6.58-1.39-.96-.17-1.97-.37-3.03-.54-44.45-7.75-157.03-18.54-210.43-22.37,12.08.69,122.57,6.66,120.88-12.45-2.22-25.17-125.6-52.05-129.45-52.89,110.33,16.48,158.69,32.42,187.45,44.85,5.65,2.45,10.52,4.75,14.98,6.91,6.36,3.04,11.83,5.79,17.35,8.17,30.62,13.17,55.28,29.06,74.53,52.43Z"/>
        </g>
        <g>
          <g>
            <path class="cls-4" d="m1248.06,260.2c-.02,4.31,12.61,7.85,28.21,7.91,15.6.06,28.26-3.37,28.27-7.68.02-4.31-12.61-7.85-28.21-7.91-15.6-.06-28.26,3.37-28.27,7.68Z"/>
            <path class="cls-7" d="m1244.72,261.9c-.02,4.31,12.61,7.85,28.21,7.91,15.6.06,28.26-3.37,28.27-7.68.02-4.31-12.61-7.85-28.21-7.91-15.6-.06-28.26,3.37-28.27,7.68Z"/>
          </g>
          <g>
            <path class="cls-4" d="m1250.91,263.66c-.01,3.48,10.79,6.34,24.14,6.4,13.35.05,24.18-2.72,24.19-6.2.01-3.48-10.79-6.34-24.14-6.4-13.35-.05-24.18,2.72-24.19,6.2Z"/>
            <path class="cls-7" d="m1248.04,265.03c-.01,3.48,10.79,6.34,24.14,6.4,13.35.05,24.18-2.72,24.19-6.2s-10.79-6.34-24.14-6.4c-13.35-.05-24.18,2.72-24.19,6.2Z"/>
          </g>
          <path class="cls-4" d="m1260.06,266.19c0,1,6.71,1.83,14.99,1.87,8.29.03,15.01-.75,15.01-1.74,0-1-6.71-1.83-14.99-1.87-8.29-.03-15.01.75-15.01,1.74Z"/>
        </g>
        <g>
          <g>
            <path class="cls-4" d="m1246.04,298.7c0,2.25,6.59,4.1,14.74,4.13,8.15.03,14.76-1.76,14.77-4.01,0-2.25-6.59-4.1-14.74-4.13-8.15-.03-14.76,1.76-14.77,4.01Z"/>
            <path class="cls-7" d="m1244.3,299.58c0,2.25,6.59,4.1,14.74,4.13,8.15.03,14.76-1.76,14.77-4.01,0-2.25-6.59-4.1-14.74-4.13-8.15-.03-14.76,1.76-14.77,4.01Z"/>
          </g>
          <g>
            <path class="cls-4" d="m1247.53,300.5c0,1.82,5.64,3.31,12.61,3.34,6.97.03,12.63-1.42,12.64-3.24,0-1.82-5.64-3.31-12.61-3.34s-12.63,1.42-12.64,3.24Z"/>
            <path class="cls-7" d="m1246.03,301.22c0,1.82,5.64,3.31,12.61,3.34,6.97.03,12.63-1.42,12.64-3.24,0-1.82-5.64-3.31-12.61-3.34-6.97-.03-12.63,1.42-12.64,3.24Z"/>
          </g>
          <path class="cls-4" d="m1252.31,301.83c0,.52,3.51.96,7.84.98,4.33.02,7.84-.39,7.84-.91,0-.52-3.51-.96-7.84-.98-4.33-.02-7.84.39-7.84.91Z"/>
        </g>
        <g>
          <path class="cls-7" d="m957.39,253.01c14.86-2.29,17.86-3.08,36.87-3.95l7.48,30.04c-31.99,3.98-54.96,12.57-59.23,16.92l-25.56-31.14c2.4-2.06,13.12-7.64,40.44-11.87Z"/>
          <g>
            <path class="cls-7" d="m987.21,249.49s40.23-3.1,54.54-3.55l-54.56,7.96.02-4.41Z"/>
            <path class="cls-7" d="m986.91,256.53l.13-4.38c.38-.04,39.58-2.77,52.46-3.18-.42,0-52.59,7.56-52.59,7.56Z"/>
            <path class="cls-7" d="m986.63,259.17l.24-4.35c.75-.07,38.93-2.45,50.37-2.81-.83,0-50.62,7.16-50.62,7.16Z"/>
            <path class="cls-7" d="m986.35,261.8l.36-4.31c1.13-.11,38.27-2.13,48.29-2.44-1.25.01-48.65,6.75-48.65,6.75Z"/>
            <path class="cls-7" d="m986.07,264.43l.47-4.28c1.5-.14,37.62-1.8,46.21-2.07-1.66.02-46.67,6.35-46.67,6.35Z"/>
            <path class="cls-7" d="m985.79,267.06l.58-4.25c1.88-.18,36.97-1.48,44.12-1.7-2.08.02-44.7,5.95-44.7,5.95Z"/>
            <path class="cls-7" d="m985.51,269.69l.69-4.21c2.26-.22,36.31-1.16,42.04-1.34-2.5.02-42.73,5.55-42.73,5.55Z"/>
            <path class="cls-7" d="m985.23,272.23l.81-4.18c2.63-.25,35.66-.83,39.95-.97-2.91.03-40.76,5.15-40.76,5.15Z"/>
            <path class="cls-7" d="m984.95,274.84l.92-4.15c3.01-.29,35.01-.51,37.87-.6-3.33.03-38.79,4.75-38.79,4.75Z"/>
            <path class="cls-7" d="m984.67,277.46l1.03-4.12c3.38-.33,34.36-.19,35.79-.23-3.74.04-36.82,4.35-36.82,4.35Z"/>
            <path class="cls-7" d="m984.39,280.21s30.69-3.91,34.85-3.95c0,0-29.94-.5-33.7-.14l-1.14,4.08Z"/>
          </g>
        </g>
        <g>
          <path class="cls-7" d="m1187.28,253.95c-14.84-2.41-17.84-3.23-36.83-4.25l-7.73,29.98c31.95,4.24,54.85,13.02,59.09,17.4l25.81-30.93c-2.39-2.08-13.05-7.75-40.34-12.2Z"/>
          <g>
            <path class="cls-7" d="m1157.49,250.19s-40.21-3.43-54.51-3.99l54.49,8.4.02-4.41Z"/>
            <path class="cls-7" d="m1157.73,257.23s-52.11-7.98-52.53-7.99c12.87.51,52.05,3.57,52.43,3.61l.09,4.38Z"/>
            <path class="cls-7" d="m1157.99,259.87s-49.73-7.55-50.56-7.57c11.44.45,49.6,3.14,50.35,3.22l.21,4.35Z"/>
            <path class="cls-7" d="m1158.25,262.5s-47.34-7.13-48.59-7.15c10.01.4,47.14,2.72,48.27,2.84l.32,4.32Z"/>
            <path class="cls-7" d="m1158.51,265.13s-44.96-6.71-46.62-6.73c8.58.34,44.69,2.29,46.19,2.45l.43,4.28Z"/>
            <path class="cls-7" d="m1158.76,267.77s-42.57-6.28-44.65-6.32c7.15.28,42.23,1.87,44.11,2.07l.55,4.25Z"/>
            <path class="cls-7" d="m1159.02,270.4s-40.19-5.86-42.69-5.9c5.72.23,39.77,1.44,42.03,1.68l.66,4.22Z"/>
            <path class="cls-7" d="m1159.28,273.03s-37.81-5.43-40.72-5.48c4.29.17,37.32,1.02,39.94,1.29l.77,4.19Z"/>
            <path class="cls-7" d="m1159.54,275.66s-35.42-5.01-38.75-5.06c2.86.11,34.86.59,37.86.91l.88,4.16Z"/>
            <path class="cls-7" d="m1159.8,278.3s-33.04-4.58-36.78-4.65c1.43.06,32.4.17,35.78.52l1,4.12Z"/>
            <path class="cls-7" d="m1160.06,280.93s-30.65-4.16-34.81-4.23c0,0,29.95-.26,33.7.14l1.11,4.09Z"/>
          </g>
        </g>
        <path class="cls-4" d="m1368.04,244.55s-1.24-39.48-37.15-59.38l4.83.02s37.26,17.58,42.38,61.54l-10.07-2.18Z"/>
        <path class="cls-4" d="m775.99,242.13s1.57-39.47,37.63-59.07l-4.83-.02s-37.4,17.28-42.89,61.2l10.09-2.1Z"/>
        <path class="cls-4" d="m987.23,245.72s-8.16,23.26,1.92,35.69c0,0-22.74-13.17-23.44-32.46l21.52-3.23Z"/>
        <ellipse class="cls-7" cx="1072.17" cy="293.92" rx="19.45" ry="130.85" transform="translate(773.87 1364.87) rotate(-89.77)"/>
        <path class="cls-4" d="m1168.68,294.53c-.03,6.84-43.26,12.21-96.56,11.99-53.3-.22-96.49-5.94-96.46-12.78.03-6.84,43.26-12.21,96.56-11.99,53.3.22,96.49,5.94,96.46,12.78Z"/>
        <path class="cls-4" d="m771.09,275.08c0,1.18-6.08,2.1-13.57,2.07-7.49-.03-13.55-1.01-13.55-2.18,0-1.18,6.08-2.1,13.57-2.07,7.49.03,13.55,1.01,13.55,2.18Z"/>
        <path class="cls-4" d="m1373.4,277.55c0,1.18,6.06,2.15,13.55,2.18,7.49.03,13.56-.9,13.57-2.07,0-1.18-6.06-2.15-13.55-2.18-7.49-.03-13.56.9-13.57,2.07Z"/>
        <g>
          <path class="cls-4" d="m1611.13,408.84c-.19,47.52-241.63,85.04-539.25,83.82-297.64-1.22-538.76-40.71-538.56-88.23.33-81.1,242.13-206.68,539.76-205.46,297.62,1.22,538.38,128.76,538.05,209.87Z"/>
          <path class="cls-2" d="m1071.84,501.1c-144.39-.59-280.15-10.13-382.3-26.86-110.92-18.17-164.78-41.01-164.67-69.83.09-22.51,15.86-47.72,45.61-72.89,28.61-24.22,69.39-47.88,117.93-68.44,111.74-47.33,248.36-73.09,384.7-72.53,136.33.56,272.73,27.43,384.07,75.67,48.36,20.95,88.95,44.95,117.36,69.4,29.54,25.41,45.1,50.75,45.01,73.26-.12,28.82-54.16,51.22-165.23,68.49-102.27,15.9-238.11,24.33-382.49,23.74Zm1.2-293.69c-77.67-.32-230.05,8.51-378.05,71.19-46.99,19.9-86.28,42.65-113.61,65.78-25.49,21.57-39.57,42.91-39.64,60.09-.04,10.56,31.61,33.64,150.52,53.12,101.29,16.59,236.12,26.06,379.64,26.64,143.52.59,278.41-7.77,379.83-23.54,119.07-18.51,150.91-41.32,150.95-51.89.07-17.18-13.83-38.63-39.14-60.41-27.14-23.35-66.24-46.42-113.07-66.71-63.3-27.42-196.51-73.54-377.44-74.28Z"/>
        </g>
        <path class="cls-2" d="m1611.13,408.84c-.19,47.52-241.63,85.04-539.25,83.82-297.64-1.22-538.76-40.71-538.56-88.23.19-47.5,241.63-85.02,539.27-83.81,297.62,1.22,538.74,40.71,538.55,88.21Z"/>
        <path class="cls-4" d="m1071.4,483.07c-50.41-.21-97.86-3.33-133.6-8.79-47.38-7.24-59.18-16.2-61.45-24.51l-30.67-34.58c-3.87-3.62-4.69-7.39-4.67-9.95.06-15.75,29.07-22.48,72.6-27.75,42.34-5.13,98.54-7.81,158.25-7.57,59.71.24,115.89,3.39,158.18,8.86,60.13,7.78,72.42,16.96,72.37,28.34-.01,2.56-.86,6.32-4.76,9.92l-30.95,34.33c-2.34,8.3-14.21,17.16-61.65,24.01-35.78,5.17-83.25,7.9-133.66,7.7Z"/>
        <path class="cls-4" d="m1294.49,407.56c.06-15.37-99.4-28.24-222.16-28.74-122.76-.5-222.32,11.55-222.38,26.92,0,1.35.77,2.68,2.26,3.99h0l32.62,36.78,374.46,1.53,32.92-36.51c1.49-1.29,2.28-2.62,2.29-3.97Z"/>
        <path class="cls-4" d="m644.1,466.93s-2.55-.46-7.34-1.31c-4.77-.91-11.8-2.21-20.63-4.39-8.82-2.18-19.53-5.02-31.47-9.53-5.96-2.26-12.25-4.91-18.64-8.36-3.19-1.73-6.4-3.68-9.52-6.02-3.11-2.35-6.19-5.04-8.76-8.61-1.26-1.79-2.4-3.83-3.08-6.18-.34-1.17-.56-2.42-.62-3.7l-.02-.48v-.52c.03-.27.01-.45.05-.8.07-.72.16-1.44.3-2.03,1.13-5.1,4.35-8.94,7.68-12.02,3.39-3.11,7.17-5.59,11.09-7.82,3.92-2.23,8.01-4.19,12.19-6,16.78-7.17,35.07-12.4,54.12-16.88,19.07-4.44,38.89-8.29,59.13-11.44,20.24-3.17,40.86-5.88,61.51-8.25,20.66-2.26,41.35-4.12,61.73-5.72,20.38-1.66,40.46-2.71,59.9-3.7,19.43-1,38.23-1.57,56.06-2,17.82-.47,34.68-.64,50.24-.67,15.56-.08,29.82.06,42.46.26,12.64.16,23.65.48,32.72.74,9.07.24,16.19.59,21.05.78,4.86.21,7.45.32,7.45.32,0,0-10.36.39-28.49,1.08-9.06.35-20.06.78-32.68,1.27-12.61.55-26.83,1.16-42.35,1.83-15.51.79-32.3,1.64-50.07,2.55-17.76.98-36.47,2.19-55.82,3.46-19.35,1.27-39.32,2.95-59.6,4.6-20.28,1.71-40.85,3.72-61.38,6.05-20.54,2.22-41.03,4.79-61.11,7.81-20.07,3.05-39.79,6.29-58.63,10.38-18.8,4.15-36.93,8.63-53.13,15.01-8.02,3.21-15.72,6.92-21.6,11.76-2.89,2.42-5.2,5.24-5.93,8.11-.79,2.81.11,5.88,1.97,8.73,1.85,2.84,4.44,5.36,7.16,7.6,2.74,2.24,5.67,4.21,8.6,6.03,5.9,3.61,11.88,6.53,17.59,9.05,11.47,4.99,21.87,8.56,30.49,11.28,8.64,2.68,15.49,4.64,20.18,5.89,4.7,1.23,7.21,1.88,7.21,1.88Z"/>
        <g>
          <g>
            <path class="cls-4" d="m820.77,396.98c-.03,6.16-18.14,11.08-40.46,10.99-22.32-.09-40.39-5.16-40.36-11.32.03-6.16,18.14-11.08,40.46-10.99,22.32.09,40.39,5.16,40.36,11.32Z"/>
            <path class="cls-2" d="m825.54,399.45c-.03,6.16-18.14,11.08-40.46,10.99-22.32-.09-40.39-5.16-40.36-11.32.03-6.16,18.14-11.08,40.46-10.99,22.32.09,40.39,5.16,40.36,11.32Z"/>
          </g>
          <g>
            <path class="cls-4" d="m816.66,401.89c-.02,4.98-15.52,8.95-34.62,8.87-19.1-.08-34.56-4.18-34.54-9.15.02-4.98,15.52-8.95,34.62-8.87,19.1.08,34.56,4.18,34.54,9.16Z"/>
            <path class="cls-2" d="m820.74,403.89c-.02,4.98-15.52,8.95-34.62,8.87-19.1-.08-34.56-4.18-34.54-9.15.02-4.98,15.52-8.95,34.62-8.87,19.1.08,34.56,4.18,34.54,9.16Z"/>
          </g>
          <path class="cls-4" d="m803.54,405.41c0,1.43-9.62,2.54-21.48,2.5-11.86-.05-21.46-1.24-21.46-2.67,0-1.43,9.62-2.54,21.48-2.5,11.86.05,21.46,1.24,21.46,2.67Z"/>
        </g>
        <g>
          <g>
            <path class="cls-4" d="m823.21,452.08c-.01,3.22-9.48,5.79-21.14,5.74-11.66-.05-21.11-2.7-21.09-5.91.01-3.22,9.48-5.79,21.14-5.74,11.66.05,21.11,2.7,21.09,5.91Z"/>
            <path class="cls-2" d="m825.7,453.37c-.01,3.22-9.48,5.79-21.14,5.74s-21.11-2.7-21.09-5.91,9.48-5.79,21.14-5.74c11.66.05,21.11,2.7,21.09,5.91Z"/>
          </g>
          <g>
            <path class="cls-4" d="m821.07,454.65c-.01,2.6-8.11,4.68-18.09,4.64-9.98-.04-18.06-2.18-18.05-4.78.01-2.6,8.11-4.68,18.09-4.64,9.98.04,18.06,2.18,18.05,4.78Z"/>
            <path class="cls-2" d="m823.2,455.69c-.01,2.6-8.11,4.68-18.09,4.64-9.98-.04-18.06-2.18-18.05-4.78.01-2.6,8.11-4.68,18.09-4.64,9.98.04,18.06,2.18,18.05,4.78Z"/>
          </g>
          <path class="cls-4" d="m814.21,456.49c0,.75-5.03,1.33-11.22,1.3-6.19-.03-11.21-.65-11.21-1.4,0-.75,5.03-1.33,11.22-1.3,6.19.03,11.21.65,11.21,1.4Z"/>
        </g>
        <g>
          <g>
            <path class="cls-4" d="m1323.74,399.04c-.03,6.16,18.05,11.23,40.36,11.32,22.32.09,40.43-4.83,40.46-10.99.03-6.16-18.05-11.23-40.36-11.32-22.32-.09-40.43,4.83-40.46,10.99Z"/>
            <path class="cls-2" d="m1318.95,401.47c-.02,6.16,18.05,11.23,40.36,11.32,22.32.09,40.43-4.83,40.46-10.99.03-6.16-18.05-11.23-40.36-11.32-22.32-.09-40.43,4.83-40.46,10.99Z"/>
          </g>
          <g>
            <path class="cls-4" d="m1327.81,403.98c-.02,4.98,15.44,9.08,34.54,9.16,19.1.08,34.6-3.89,34.62-8.87.02-4.98-15.44-9.08-34.54-9.15-19.1-.08-34.6,3.89-34.62,8.87Z"/>
            <path class="cls-2" d="m1323.71,405.94c-.02,4.98,15.44,9.08,34.54,9.16,19.1.08,34.6-3.89,34.62-8.87.02-4.98-15.44-9.08-34.54-9.15-19.1-.08-34.6,3.89-34.62,8.87Z"/>
          </g>
          <path class="cls-4" d="m1340.91,407.61c0,1.43,9.6,2.62,21.46,2.67,11.86.05,21.47-1.07,21.48-2.5,0-1.43-9.6-2.62-21.46-2.67-11.86-.05-21.47,1.07-21.48,2.5Z"/>
        </g>
        <g>
          <g>
            <path class="cls-2" d="m1320.85,454.12c-.01,3.22,9.43,5.87,21.09,5.91,11.66.05,21.13-2.52,21.14-5.74.01-3.22-9.43-5.87-21.09-5.91-11.66-.05-21.13,2.52-21.14,5.74Z"/>
            <path class="cls-2" d="m1318.35,455.39c-.01,3.22,9.43,5.87,21.09,5.91,11.66.05,21.13-2.52,21.14-5.74.01-3.22-9.43-5.87-21.09-5.91-11.66-.05-21.13,2.52-21.14,5.74Z"/>
          </g>
          <g>
            <path class="cls-4" d="m1322.98,456.7c-.01,2.6,8.07,4.74,18.05,4.78,9.98.04,18.08-2.03,18.09-4.64.01-2.6-8.07-4.74-18.05-4.78-9.98-.04-18.08,2.03-18.09,4.64Z"/>
            <path class="cls-2" d="m1320.84,457.73c-.01,2.6,8.07,4.74,18.05,4.78,9.98.04,18.08-2.03,18.09-4.64.01-2.6-8.07-4.74-18.05-4.78-9.98-.04-18.08,2.03-18.09,4.64Z"/>
          </g>
          <path class="cls-4" d="m1329.82,458.59c0,.75,5.02,1.37,11.21,1.4,6.19.03,11.22-.56,11.22-1.3,0-.75-5.02-1.37-11.21-1.4-6.19-.03-11.22.56-11.22,1.3Z"/>
        </g>
        <g>
          <path class="cls-2" d="m907.81,388.75c21.26-3.27,25.56-4.41,52.75-5.65l10.71,42.98c-45.77,5.7-78.64,17.99-84.75,24.21l-36.57-44.55c3.44-2.95,18.77-10.94,57.86-16.99Z"/>
          <g>
            <path class="cls-2" d="m950.49,383.71s57.57-4.43,78.04-5.07l-78.07,11.39.03-6.31Z"/>
            <path class="cls-2" d="m950.06,393.79l.19-6.27c.54-.05,56.63-3.97,75.06-4.55-.6,0-75.25,10.81-75.25,10.81Z"/>
            <path class="cls-2" d="m949.66,397.55l.35-6.22c1.08-.1,55.7-3.51,72.08-4.02-1.19.01-72.43,10.24-72.43,10.24Z"/>
            <path class="cls-2" d="m949.26,401.32l.51-6.17c1.61-.16,54.77-3.04,69.1-3.49-1.79.02-69.61,9.66-69.61,9.66Z"/>
            <path class="cls-2" d="m948.86,405.08l.67-6.12c2.15-.21,53.83-2.58,66.12-2.97-2.38.02-66.79,9.09-66.79,9.09Z"/>
            <path class="cls-2" d="m948.46,408.75l.83-6.08c2.69-.26,52.9-2.12,63.13-2.44-2.98.03-63.97,8.52-63.97,8.52Z"/>
            <path class="cls-2" d="m948.06,412.5l.99-6.03c3.23-.31,51.96-1.65,60.15-1.91-3.57.03-61.14,7.94-61.14,7.94Z"/>
            <path class="cls-2" d="m947.65,416.24l1.15-5.98c3.77-.36,51.03-1.19,57.17-1.38-4.17.04-58.32,7.37-58.32,7.37Z"/>
            <path class="cls-2" d="m947.25,419.99l1.31-5.94c4.3-.41,50.09-.73,54.19-.86-4.76.05-55.5,6.79-55.5,6.79Z"/>
            <path class="cls-2" d="m946.85,423.73l1.48-5.89c4.84-.47,49.16-.27,51.21-.33-5.36.05-52.68,6.22-52.68,6.22Z"/>
            <path class="cls-2" d="m946.45,427.67s43.91-5.59,49.86-5.65c0,0-42.84-.72-48.22-.2l-1.64,5.84Z"/>
          </g>
        </g>
        <g>
          <path class="cls-2" d="m1236.77,390.1c-21.23-3.45-25.52-4.62-52.7-6.08l-11.06,42.89c45.72,6.07,78.49,18.63,84.54,24.9l36.94-44.25c-3.42-2.98-18.68-11.09-57.72-17.46Z"/>
          <g>
            <path class="cls-2" d="m1194.13,384.71s-57.53-4.9-78-5.71l77.97,12.03.03-6.31Z"/>
            <path class="cls-2" d="m1194.48,394.79s-74.56-11.42-75.16-11.43c18.42.73,74.48,5.1,75.02,5.16l.14,6.27Z"/>
            <path class="cls-2" d="m1194.85,398.56s-71.15-10.81-72.34-10.83c16.38.65,70.97,4.5,72.04,4.61l.3,6.22Z"/>
            <path class="cls-2" d="m1195.22,402.32s-67.74-10.2-69.53-10.23c14.33.57,67.45,3.89,69.07,4.06l.46,6.18Z"/>
            <path class="cls-2" d="m1195.59,406.09s-64.33-9.59-66.71-9.64c12.28.49,63.94,3.28,66.09,3.51l.62,6.13Z"/>
            <path class="cls-2" d="m1195.96,409.86s-60.92-8.99-63.89-9.04c10.23.4,60.42,2.67,63.11,2.95l.78,6.08Z"/>
            <path class="cls-2" d="m1196.33,413.63s-57.51-8.38-61.08-8.44c8.19.32,56.91,2.07,60.13,2.4l.94,6.04Z"/>
            <path class="cls-2" d="m1196.71,417.39s-54.1-7.77-58.26-7.84c6.14.24,53.39,1.46,57.16,1.85l1.1,5.99Z"/>
            <path class="cls-2" d="m1197.08,421.16s-50.68-7.16-55.44-7.25c4.09.16,49.88.85,54.18,1.3l1.27,5.95Z"/>
            <path class="cls-2" d="m1197.45,424.93s-47.27-6.56-52.63-6.65c2.05.08,46.36.24,51.2.75l1.43,5.9Z"/>
            <path class="cls-2" d="m1197.82,428.7s-43.86-5.95-49.81-6.05c0,0,42.85-.36,48.22.2l1.59,5.86Z"/>
          </g>
        </g>
        <path class="cls-4" d="m950.51,378.32s-11.68,33.29,2.75,51.07c0,0-32.53-18.84-33.55-46.45l30.8-4.62Z"/>
        <ellipse class="cls-1" cx="1072.06" cy="447.28" rx="27.83" ry="187.23" transform="translate(620.4 1517.49) rotate(-89.77)"/>
        <path class="cls-4" d="m1184.29,448.05c-.04,9.79-50.32,17.51-112.31,17.26-61.99-.25-112.21-8.39-112.17-18.18.04-9.79,50.32-17.51,112.31-17.26,61.99.25,112.21,8.39,112.17,18.18Z"/>
        <path class="cls-4" d="m641.24,420.33c0,1.68-8.7,3.01-19.41,2.97-10.71-.04-19.39-1.44-19.39-3.12,0-1.68,8.7-3.01,19.41-2.97,10.71.04,19.39,1.44,19.39,3.12Z"/>
        <path class="cls-4" d="m1503.07,423.86c0,1.68,8.67,3.08,19.39,3.12,10.71.04,19.4-1.28,19.41-2.97,0-1.68-8.67-3.08-19.39-3.12-10.71-.04-19.4,1.28-19.41,2.97Z"/>
        <path class="cls-2" d="m1102,25.65s84.65-.18,137.14,84.41c3.8,6.12-1.67,13.79-8.68,12.1-28.34-6.84-86.58-18.11-151.1-14.48,0,0,44.49-11.51,136.32,4.15,7.12,1.21,12.08-6.84,7.83-12.68-17.2-23.64-56.51-65.94-121.52-73.5Z"/>
        <g>
          <path class="cls-2" d="m962.7,230.46c-231.77,34.65-271.38,67.48-312.85,85.28-43.58,18.71-74.03,41.95-105.83,71.4,22.66-6.52,70.19-25.09,102.63-31.08,60.32-11.12,228.09-27.21,305.21-32.71,0,0-176.04,11.15-173.5-17.61,3.21-36.37,184.33-75.28,184.33-75.28Z"/>
          <path class="cls-2" d="m1598.05,387.13c-20.57-5.92-61.55-21.73-93.25-29.09-3.23-.74-6.35-1.41-9.37-1.97-1.36-.25-2.8-.53-4.31-.77-63.24-11.02-223.43-26.38-299.41-31.84,17.19.99,174.4,9.47,171.99-17.71-3.16-35.82-178.7-74.06-184.2-75.26,156.99,23.45,225.8,46.13,266.71,63.81,8.04,3.49,14.97,6.76,21.32,9.83,9.04,4.33,16.83,8.24,24.69,11.62,43.57,18.74,74.01,41.94,105.81,71.39Z"/>
        </g>
        <path class="cls-4" d="m1521.44,366.33s1.56.26,4.48.75c2.91.54,7.21,1.26,12.61,2.45,5.41,1.17,11.99,2.62,19.44,4.75,7.45,2.12,15.84,4.7,24.7,8.66,4.43,1.98,8.99,4.29,13.49,7.37,2.24,1.55,4.45,3.35,6.5,5.55,2.03,2.19,3.96,4.86,5.04,8.25.56,1.71.83,3.44.77,5.46-.02.36-.01.65-.05,1.07l-.24,1.55c-.2,1.02-.45,1.82-.75,2.69-1.28,3.38-3.31,6.19-5.56,8.52-4.51,4.69-9.83,7.98-15.26,10.93-5.45,2.94-11.14,5.4-16.94,7.68-5.8,2.27-11.74,4.3-17.78,6.1-12.06,3.65-24.43,6.71-36.85,9.45-12.44,2.63-24.92,4.95-37.24,6.9-12.32,2.02-24.49,3.55-36.27,5.01-11.77,1.49-23.19,2.56-34.01,3.53-10.82,1.01-21.07,1.72-30.53,2.3-9.46.63-18.14,1.02-25.83,1.32-7.69.35-14.41.48-19.93.62-5.53.14-9.87.15-12.83.18-2.96,0-4.54.01-4.54.01,0,0,1.56-.22,4.5-.64,2.93-.4,7.24-.98,12.71-1.72,10.94-1.45,26.57-3.53,45.32-6.02,9.36-1.29,19.49-2.68,30.21-4.16,10.71-1.51,21.98-3.22,33.64-4.96,11.65-1.75,23.64-3.83,35.82-5.93,12.16-2.17,24.48-4.48,36.71-7.12,12.24-2.57,24.4-5.46,36.14-8.88,11.69-3.48,23.18-7.15,33.29-12.2,5.04-2.49,9.73-5.41,13.33-8.74,1.8-1.66,3.15-3.49,3.95-5.28.18-.42.36-.95.45-1.28.04-.16.08-.32.14-.49.04-.26.07-.66.1-.98.06-.73.01-1.74-.25-2.62-.45-1.83-1.57-3.71-3.03-5.44-1.45-1.74-3.21-3.33-5.05-4.82-3.73-2.96-7.83-5.44-11.9-7.6-8.17-4.29-16.14-7.58-23.27-10.32-7.15-2.69-13.47-4.89-18.7-6.61-5.24-1.71-9.37-3.05-12.2-3.93-2.83-.89-4.33-1.36-4.33-1.36Z"/>
        <path class="cls-4" d="m648.26,373.18s2.24-56.48,53.84-84.53l-6.91-.03s-53.52,24.72-61.36,87.56l14.43-3.01Z"/>
        <path class="cls-4" d="m1495.41,376.65s-1.78-56.49-53.15-84.97l6.91.03s53.31,25.16,60.65,88.06l-14.41-3.12Z"/>
        <path class="cls-2" d="m1599.23,387.13l-11.32-3.68,1.06,1.84,9.55,5.95s3.18.83,2.95,0c-.24-.83-2.24-4.11-2.24-4.11Z"/>
      </g>
      <g>
        <polygon class="cls-1" points="928.29 453.4 828.37 884.17 728.44 1314.94 786.29 1095.23 844.14 875.51 959.83 436.09 928.29 453.4"/>
        <polygon class="cls-1" points="1215.82 453.4 1315.74 884.17 1415.67 1314.94 1357.82 1095.23 1299.97 875.51 1184.28 436.09 1215.82 453.4"/>
      </g>
    </g>
    <g>
      <path class="cls-2" d="m585.95,1268.02v-106.54h-177.85v-93.6l170.51-403.25h114.09v396.81h43.62v100.04h-43.62v106.54h-106.75Zm0-206.58v-172.68l-72.88,172.68h72.88Z"/>
      <path class="cls-2" d="m1025.46,1136.07c-16.28,0-33.84-4.21-52.19-12.51-31.72-14.34-52.34-34.76-61.28-60.68-8.89-25.75-5.83-55.54,9.1-88.56l90.68-200.52c14.93-33.01,35.28-54.99,60.49-65.32,10.63-4.36,22.02-6.57,33.83-6.57,16.28,0,33.85,4.21,52.2,12.51,31.7,14.34,52.32,34.75,61.27,60.67,8.89,25.76,5.84,55.56-9.09,88.56l-90.68,200.53c-14.93,33.01-35.28,54.99-60.5,65.32-10.64,4.36-22.02,6.57-33.84,6.57Zm88.61-354.9c-2.74,0-5.32.47-7.9,1.44-6.06,2.29-12.06,9.68-17.35,21.38l-94.17,208.24c-5.29,11.7-6.88,21.1-4.59,27.16,2.35,6.24,7.19,10.94,14.78,14.37,4.47,2.02,8.73,3.04,12.66,3.04h0c2.74,0,5.31-.47,7.88-1.44,6.07-2.29,12.07-9.68,17.36-21.38l94.17-208.24c5.29-11.7,6.87-21.08,4.58-27.15-2.35-6.24-7.19-10.94-14.77-14.37-4.46-2.02-8.72-3.04-12.66-3.04Z"/>
      <path class="cls-2" d="m1585.97,1268.02v-106.54h-177.85v-93.6l170.51-403.25h114.09v396.81h43.62v100.04h-43.62v106.54h-106.75Zm0-206.58v-172.68l-72.88,172.68h72.88Z"/>
    </g>
    <path class="cls-2" d="m1026.34,730.61c0,5.99,9.75-5.57,6.96-12.53-2.78-6.96-6.96,4.18-6.96,12.53Z"/>
    <path class="cls-2" d="m891,961.64c0,5.99,9.75-5.57,6.96-12.53-2.78-6.96-6.96,4.18-6.96,12.53Z"/>
    <path class="cls-2" d="m1099.44,666.56c-4.18-2.78-13.23,1.14-2.78,6.14,10.44,5,20.89-2.32,16.71-3.53-4.18-1.22-13.92-2.61-13.92-2.61Z"/>
    <path class="cls-2" d="m1258.93,1014.19c-4.18-2.78-13.23,1.14-2.78,6.14,10.44,5,20.89-2.32,16.71-3.53-4.18-1.22-13.92-2.61-13.92-2.61Z"/>
    <path class="cls-2" d="m1087.61,605.99s-11.14,2.78-4.18,6.27c6.96,3.48,4.18-6.27,4.18-6.27Z"/>
    <path class="cls-2" d="m1198.71,1132.72s-11.14,2.78-4.18,6.27c6.96,3.48,4.18-6.27,4.18-6.27Z"/>
    <path class="cls-2" d="m1103.61,826.05c-4.87,3.13-6.96,7.31-2.78,6.96,4.18-.35,7.31-1.37,6.61-3.47-.7-2.1-3.83-3.49-3.83-3.49Z"/>
  </g>
  <text class="cls-3" transform="translate(0 1420.58)"><tspan x="0" y="0">Oops! Página no encontrada, intenta más tard</tspan><tspan class="cls-5" x="2067.91" y="0">e</tspan><tspan class="cls-6" x="2118.8" y="0">.</tspan></text>
</svg>